<?xml version="1.0" encoding="utf-8"?>
<!-- Generator: Adobe Illustrator 19.0.0, SVG Export Plug-In . SVG Version: 6.00 Build 0)  -->
<!DOCTYPE svg PUBLIC "-//W3C//DTD SVG 1.1//EN" "http://www.w3.org/Graphics/SVG/1.1/DTD/svg11.dtd">
<svg version="1.1" xmlns="http://www.w3.org/2000/svg" xmlns:xlink="http://www.w3.org/1999/xlink" x="0px" y="0px"
	 viewBox="0 0 309.6 470.3" enable-background="new 0 0 309.6 470.3" xml:space="preserve">
<g id="Layer_1">
	<g id="XMLID_1_">
		<circle id="XMLID_783_" fill="#FCF6C5" cx="124.5" cy="96.2" r="4"/>
	</g>
	<g id="XMLID_2_">
		<circle id="XMLID_781_" fill="#FCF6C5" cx="101.8" cy="114.8" r="2.6"/>
	</g>
	<g id="XMLID_3_">
		<circle id="XMLID_779_" fill="#FBF4A1" cx="100.1" cy="107.5" r="4.2"/>
	</g>
	<g id="XMLID_4_">
		<circle id="XMLID_777_" fill="#F89820" cx="187.6" cy="19.4" r="4.2"/>
	</g>
	<g id="XMLID_5_">
		<circle id="XMLID_775_" fill="#F89820" cx="188.3" cy="89.1" r="3.4"/>
	</g>
	<g id="XMLID_6_">
		<circle id="XMLID_773_" fill="#F89820" cx="210" cy="38.4" r="3.4"/>
	</g>
	<g id="XMLID_7_">
		<circle id="XMLID_771_" fill="#F89820" cx="264.7" cy="40.4" r="3.4"/>
	</g>
	<g id="XMLID_8_">
		<circle id="XMLID_769_" fill="#F89820" cx="163.4" cy="321.7" r="3.5"/>
	</g>
	<g id="XMLID_9_">
		<circle id="XMLID_767_" fill="#F89820" cx="201.6" cy="349" r="4.2"/>
	</g>
	<g id="XMLID_10_">
		<circle id="XMLID_765_" fill="#5E6CB2" cx="298.3" cy="134" r="5"/>
	</g>
	<g id="XMLID_11_">
		<circle id="XMLID_763_" fill="#5E6CB2" cx="221" cy="183.7" r="2"/>
	</g>
	<g id="XMLID_12_">
		<circle id="XMLID_761_" fill="#5E6CB2" cx="180.2" cy="193.6" r="1.4"/>
	</g>
	<g id="XMLID_13_">
		<circle id="XMLID_759_" fill="#5E6CB2" cx="225.6" cy="17.1" r="4.2"/>
	</g>
	<g id="XMLID_14_">
		<circle id="XMLID_757_" fill="#5E6CB2" cx="278.3" cy="63.2" r="5.3"/>
	</g>
	<g id="XMLID_15_">
		<circle id="XMLID_755_" fill="#5E6CB2" cx="235.8" cy="75" r="4.5"/>
	</g>
	<g id="XMLID_16_">
		<circle id="XMLID_753_" fill="#5E6CB2" cx="137.4" cy="14.5" r="3.7"/>
	</g>
	<g id="XMLID_17_">
		<circle id="XMLID_751_" fill="#5E6CB2" cx="87.7" cy="183.7" r="2"/>
	</g>
	<g id="XMLID_18_">
		<circle id="XMLID_749_" fill="#5E6CB2" cx="128.5" cy="193.7" r="1.4"/>
	</g>
	<g id="XMLID_19_">
		<circle id="XMLID_747_" fill="#5E6CB2" cx="239.8" cy="341.2" r="2"/>
	</g>
	<g id="XMLID_20_">
		<circle id="XMLID_745_" fill="#5E6CB2" cx="256.7" cy="338" r="1.3"/>
	</g>
	<g id="XMLID_21_">
		<circle id="XMLID_743_" fill="#5E6CB2" cx="249.9" cy="340.4" r="0.9"/>
	</g>
	<g id="XMLID_22_">
		<circle id="XMLID_741_" fill="#5E6CB2" cx="191.3" cy="345.4" r="6.1"/>
	</g>
	<g id="XMLID_23_">
		<circle id="XMLID_739_" fill="#5E6CB2" cx="164.4" cy="338.9" r="2.5"/>
	</g>
	<g id="XMLID_24_">
		<circle id="XMLID_737_" fill="#5E6CB2" cx="121.1" cy="353.2" r="2"/>
	</g>
	<g id="XMLID_25_">
		<circle id="XMLID_735_" fill="#5E6CB2" cx="64.6" cy="359.7" r="1.9"/>
	</g>
	<g id="XMLID_26_">
		<circle id="XMLID_733_" fill="#781647" cx="8" cy="168.6" r="7.9"/>
	</g>
	<g id="XMLID_27_">
		<circle id="XMLID_731_" fill="#781647" cx="34.6" cy="189.3" r="7"/>
	</g>
	<g id="XMLID_28_">
		<ellipse id="XMLID_729_" fill="#781647" cx="187.6" cy="19.3" rx="4.2" ry="4.3"/>
	</g>
	<g id="XMLID_29_">
		<ellipse id="XMLID_727_" fill="#EF4781" cx="105.2" cy="119.5" rx="0.4" ry="0.1"/>
	</g>
	<g id="XMLID_30_">
		<circle id="XMLID_725_" fill="#EF4781" cx="304.1" cy="177" r="5.3"/>
	</g>
	<g id="XMLID_31_">
		<circle id="XMLID_723_" fill="#EF4781" cx="247.2" cy="203.7" r="2.3"/>
	</g>
	<g id="XMLID_32_">
		<circle id="XMLID_721_" fill="#EF4781" cx="268.3" cy="173.5" r="3.4"/>
	</g>
	<g id="XMLID_33_">
		<circle id="XMLID_719_" fill="#EF4781" cx="256.9" cy="127.4" r="3.8"/>
	</g>
	<g id="XMLID_34_">
		<circle id="XMLID_717_" fill="#EF4781" cx="11.1" cy="208" r="4.4"/>
	</g>
	<g id="XMLID_35_">
		<circle id="XMLID_715_" fill="#EF4781" cx="25.3" cy="147.5" r="3"/>
	</g>
	<g id="XMLID_36_">
		<circle id="XMLID_713_" fill="#EF4781" cx="280.6" cy="216.7" r="3.5"/>
	</g>
	<g id="XMLID_37_">
		<circle id="XMLID_711_" fill="#EF4781" cx="61.5" cy="203.8" r="2.3"/>
	</g>
	<g id="XMLID_38_">
		<ellipse id="XMLID_709_" fill="#EF4781" cx="135.7" cy="343" rx="0.4" ry="0.1"/>
	</g>
	<g id="XMLID_39_">
		<ellipse id="XMLID_707_" fill="#EF4781" cx="242.9" cy="352.1" rx="0.2" ry="0.1"/>
	</g>
	<g id="XMLID_40_">
		<ellipse id="XMLID_705_" fill="#EF4781" cx="216.3" cy="331.3" rx="0.3" ry="0.1"/>
	</g>
	<g id="XMLID_41_">
		<ellipse id="XMLID_703_" fill="#EF4781" cx="118.8" cy="324.7" rx="0.2" ry="0.1"/>
	</g>
	<g id="XMLID_42_">
		<ellipse id="XMLID_701_" fill="#EF4781" cx="148.4" cy="320.8" rx="0.2" ry="0.1"/>
	</g>
	<g id="XMLID_43_">
		<ellipse id="XMLID_699_" fill="#EF4781" cx="252.8" cy="345.2" rx="0.1" ry="0"/>
	</g>
	<g id="XMLID_44_">
		<circle id="XMLID_697_" fill="#EF4781" cx="179.6" cy="389.4" r="2.7"/>
	</g>
	<g id="XMLID_45_">
		<circle id="XMLID_695_" fill="#EF4781" cx="147.8" cy="415.9" r="2.7"/>
	</g>
	<g id="XMLID_46_">
		<circle id="XMLID_693_" fill="#5EBFED" cx="42" cy="146.3" r="7"/>
	</g>
	<g id="XMLID_47_">
		<circle id="XMLID_691_" fill="#5EBFED" cx="108.9" cy="111.2" r="4.7"/>
	</g>
	<g id="XMLID_48_">
		<circle id="XMLID_689_" fill="#5EBFED" cx="25.8" cy="210.5" r="9.3"/>
	</g>
	<g id="XMLID_49_">
		<circle id="XMLID_687_" fill="#5EBFED" cx="41.1" cy="105.1" r="2.6"/>
	</g>
	<g id="XMLID_50_">
		<circle id="XMLID_685_" fill="#5EBFED" cx="290.9" cy="222.9" r="8.1"/>
	</g>
	<g id="XMLID_51_">
		<circle id="XMLID_683_" fill="#5EBFED" cx="236.2" cy="193" r="4.8"/>
	</g>
	<g id="XMLID_52_">
		<circle id="XMLID_681_" fill="#5EBFED" cx="207.9" cy="192.7" r="1.6"/>
	</g>
	<g id="XMLID_53_">
		<circle id="XMLID_679_" fill="#5EBFED" cx="178.6" cy="189.2" r="2.6"/>
	</g>
	<g id="XMLID_54_">
		<circle id="XMLID_677_" fill="#5EBFED" cx="72.5" cy="193" r="4.8"/>
	</g>
	<g id="XMLID_55_">
		<circle id="XMLID_675_" fill="#5EBFED" cx="100.8" cy="192.8" r="1.6"/>
	</g>
	<g id="XMLID_56_">
		<circle id="XMLID_673_" fill="#5EBFED" cx="130.1" cy="189.3" r="2.6"/>
	</g>
	<g id="XMLID_57_">
		<circle id="XMLID_671_" fill="#5EBFED" cx="185" cy="396.5" r="4.7"/>
	</g>
	<g id="XMLID_58_">
		<circle id="XMLID_669_" fill="#5EBFED" cx="134.7" cy="415.6" r="10.3"/>
	</g>
	<g id="XMLID_59_">
		<circle id="XMLID_667_" fill="#5ABFED" cx="271.6" cy="181.9" r="4.2"/>
	</g>
	<g id="XMLID_60_">
		<circle id="XMLID_665_" fill="#5ABFED" cx="207" cy="183.4" r="2"/>
	</g>
	<g id="XMLID_61_">
		<circle id="XMLID_663_" fill="#5ABFED" cx="201.2" cy="189.1" r="5.7"/>
	</g>
	<g id="XMLID_62_">
		<circle id="XMLID_661_" fill="#5ABFED" cx="101.7" cy="183.5" r="2"/>
	</g>
	<g id="XMLID_63_">
		<circle id="XMLID_659_" fill="#5ABFED" cx="107.5" cy="189.2" r="5.7"/>
	</g>
	<g id="XMLID_64_">
		<circle id="XMLID_657_" fill="#5ABFED" cx="165.5" cy="375.7" r="6.5"/>
	</g>
	<g id="XMLID_65_">
		<circle id="XMLID_655_" fill="#93C755" cx="278.6" cy="173.2" r="6.2"/>
	</g>
	<g id="XMLID_66_">
		<circle id="XMLID_653_" fill="#93C755" cx="213.9" cy="187.8" r="5.9"/>
	</g>
	<g id="XMLID_67_">
		<circle id="XMLID_651_" fill="#93C755" cx="288.7" cy="136" r="3.6"/>
	</g>
	<g id="XMLID_68_">
		<circle id="XMLID_649_" fill="#93C755" cx="45" cy="54.6" r="2.2"/>
	</g>
	<g id="XMLID_69_">
		<circle id="XMLID_647_" fill="#93C755" cx="50.5" cy="77.3" r="2.2"/>
	</g>
	<g id="XMLID_70_">
		<circle id="XMLID_645_" fill="#93C755" cx="23.3" cy="81.1" r="4.6"/>
	</g>
	<g id="XMLID_71_">
		<circle id="XMLID_643_" fill="#93C755" cx="166.7" cy="30.7" r="3.2"/>
	</g>
	<g id="XMLID_72_">
		<circle id="XMLID_641_" fill="#93C755" cx="157.9" cy="4" r="2.5"/>
	</g>
	<g id="XMLID_73_">
		<circle id="XMLID_639_" fill="#93C755" cx="172.5" cy="87.1" r="3.7"/>
	</g>
	<g id="XMLID_74_">
		<circle id="XMLID_637_" fill="#93C755" cx="124.7" cy="44.4" r="1.4"/>
	</g>
	<g id="XMLID_75_">
		<circle id="XMLID_635_" fill="#93C755" cx="94.8" cy="187.8" r="5.9"/>
	</g>
	<g id="XMLID_76_">
		<circle id="XMLID_633_" fill="#93C755" cx="88" cy="351.1" r="2.2"/>
	</g>
	<g id="XMLID_77_">
		<circle id="XMLID_631_" fill="#93C755" cx="82.8" cy="370.6" r="1.6"/>
	</g>
	<g id="XMLID_78_">
		<circle id="XMLID_630_" fill="#93C755" cx="67.5" cy="357.5" r="1.1"/>
	</g>
	<g id="XMLID_79_">
		<circle id="XMLID_628_" fill="#93C755" cx="97.4" cy="375.4" r="4.8"/>
	</g>
	<g id="XMLID_80_">
		<circle id="XMLID_626_" fill="#93C755" cx="60.7" cy="364.2" r="3.7"/>
	</g>
	<g id="XMLID_81_">
		<circle id="XMLID_624_" fill="#93C755" cx="186.2" cy="315.9" r="3.2"/>
	</g>
	<g id="XMLID_82_">
		<circle id="XMLID_622_" fill="#93C755" cx="173.8" cy="383.1" r="3.7"/>
	</g>
	<g id="XMLID_83_">
		<circle id="XMLID_620_" fill="#93C755" cx="136.9" cy="366.9" r="2.3"/>
	</g>
	<g id="XMLID_84_">
		<circle id="XMLID_618_" fill="#93C755" cx="116.7" cy="390.9" r="2.1"/>
	</g>
	<g id="XMLID_85_">
		<circle id="XMLID_616_" fill="#781647" cx="54.8" cy="108.5" r="10.9"/>
	</g>
	<g id="XMLID_86_">
		<circle id="XMLID_614_" fill="#5CC4D7" cx="27.3" cy="122.7" r="19.1"/>
	</g>
	<g id="XMLID_87_">
		<g id="XMLID_802_">
			<circle id="XMLID_803_" fill="#5ABFED" cx="58.8" cy="45.7" r="13.7"/>
		</g>
	</g>
	<g id="XMLID_89_">
		<circle id="XMLID_612_" fill="#5ABFED" cx="117.9" cy="31" r="13"/>
	</g>
	<g id="XMLID_90_">
		<circle id="XMLID_610_" fill="#D11D59" cx="75.3" cy="81.2" r="22.5"/>
	</g>
	<g id="XMLID_91_">
		<circle id="XMLID_608_" fill="#EF4881" cx="91.4" cy="26.9" r="12.9"/>
	</g>
	<g id="XMLID_92_">
		<circle id="XMLID_606_" fill="#F48FB0" cx="288.9" cy="122.7" r="8.8"/>
	</g>
	<g id="XMLID_93_">
		<circle id="XMLID_604_" fill="#F48FB0" cx="231.2" cy="100.8" r="4.3"/>
	</g>
	<g id="XMLID_94_">
		<circle id="XMLID_602_" fill="#F48FB0" cx="283.9" cy="70.1" r="2.7"/>
	</g>
	<g id="XMLID_95_">
		<circle id="XMLID_600_" fill="#F48FB0" cx="81" cy="46.2" r="7.8"/>
	</g>
	<g id="XMLID_96_">
		<circle id="XMLID_598_" fill="#F48FB0" cx="97.5" cy="113.2" r="1.7"/>
	</g>
	<g id="XMLID_97_">
		<circle id="XMLID_596_" fill="#F48FB0" cx="109.9" cy="117.9" r="1.4"/>
	</g>
	<g id="XMLID_98_">
		<circle id="XMLID_594_" fill="#F48FB0" cx="80.8" cy="129.2" r="1.7"/>
	</g>
	<g id="XMLID_99_">
		<circle id="XMLID_592_" fill="#F48FB0" cx="257.3" cy="336" r="0.6"/>
	</g>
	<g id="XMLID_100_">
		<circle id="XMLID_590_" fill="#F48FB0" cx="124" cy="342.8" r="7.8"/>
	</g>
	<g id="XMLID_101_">
		<circle id="XMLID_588_" fill="#F48FB0" cx="238.7" cy="365.5" r="1.9"/>
	</g>
	<g id="XMLID_102_">
		<circle id="XMLID_586_" fill="#F48FB0" cx="195.4" cy="352.8" r="1.5"/>
	</g>
	<g id="XMLID_103_">
		<circle id="XMLID_584_" fill="#F48FB0" cx="186.2" cy="388.7" r="1.9"/>
	</g>
	<g id="XMLID_104_">
		<circle id="XMLID_582_" fill="#F48FB0" cx="190.8" cy="382" r="1.6"/>
	</g>
	<g id="XMLID_105_">
		<circle id="XMLID_580_" fill="#F48FB0" cx="176.6" cy="460.9" r="3"/>
	</g>
	<g id="XMLID_106_">
		<circle id="XMLID_578_" fill="#F48FB0" cx="181.6" cy="313.3" r="1.7"/>
	</g>
	<g id="XMLID_107_">
		<circle id="XMLID_576_" fill="#C41E59" cx="47.4" cy="66.3" r="8.4"/>
	</g>
	<g id="XMLID_108_">
		<circle id="XMLID_574_" fill="#C41E59" cx="105.2" cy="119.9" r="3.3"/>
	</g>
	<g id="XMLID_109_">
		<circle id="XMLID_572_" fill="#C41E59" cx="153.6" cy="88.9" r="2.4"/>
	</g>
	<g id="XMLID_110_">
		<circle id="XMLID_570_" fill="#C41E59" cx="75.8" cy="28.5" r="2.1"/>
	</g>
	<g id="XMLID_111_">
		<circle id="XMLID_568_" fill="#C41E59" cx="43.4" cy="42.3" r="1.5"/>
	</g>
	<g id="XMLID_112_">
		<circle id="XMLID_566_" fill="#C41E59" cx="126.8" cy="47.5" r="1.8"/>
	</g>
	<g id="XMLID_113_">
		<circle id="XMLID_564_" fill="#C41E59" cx="90.4" cy="42.3" r="1.8"/>
	</g>
	<g id="XMLID_114_">
		<circle id="XMLID_562_" fill="#C41E59" cx="110.2" cy="71.2" r="2.9"/>
	</g>
	<g id="XMLID_115_">
		<circle id="XMLID_560_" fill="#C41E59" cx="90.4" cy="362.8" r="8.4"/>
	</g>
	<g id="XMLID_116_">
		<circle id="XMLID_558_" fill="#C41E59" cx="152.9" cy="445.7" r="24.1"/>
	</g>
	<g id="XMLID_117_">
		<circle id="XMLID_556_" fill="#C41E59" cx="135.7" cy="343.4" r="3.3"/>
	</g>
	<g id="XMLID_118_">
		<circle id="XMLID_554_" fill="#C41E59" cx="131.5" cy="372.5" r="4.1"/>
	</g>
	<g id="XMLID_119_">
		<circle id="XMLID_552_" fill="#C41E59" cx="242.9" cy="352.3" r="1.5"/>
	</g>
	<g id="XMLID_120_">
		<circle id="XMLID_550_" fill="#C41E59" cx="216.3" cy="331.6" r="2.4"/>
	</g>
	<g id="XMLID_121_">
		<circle id="XMLID_548_" fill="#C41E59" cx="118.9" cy="325" r="2.1"/>
	</g>
	<g id="XMLID_122_">
		<circle id="XMLID_546_" fill="#C41E59" cx="73.3" cy="376.7" r="1.5"/>
	</g>
	<g id="XMLID_123_">
		<circle id="XMLID_544_" fill="#C41E59" cx="54.8" cy="363.8" r="1.5"/>
	</g>
	<g id="XMLID_124_">
		<circle id="XMLID_542_" fill="#C41E59" cx="148.5" cy="321.1" r="1.8"/>
	</g>
	<g id="XMLID_125_">
		<circle id="XMLID_540_" fill="#C41E59" cx="252.9" cy="345.4" r="1"/>
	</g>
	<g id="XMLID_126_">
		<circle id="XMLID_538_" fill="#C41E59" cx="116.3" cy="350.6" r="1.8"/>
	</g>
	<g id="XMLID_127_">
		<circle id="XMLID_536_" fill="#C41E59" cx="222.7" cy="422.5" r="2.4"/>
	</g>
	<g id="XMLID_128_">
		<circle id="XMLID_534_" fill="#C41E59" cx="117.2" cy="404.8" r="9.3"/>
	</g>
	<g id="XMLID_129_">
		<circle id="XMLID_532_" fill="#8CADDB" cx="14.2" cy="189.9" r="12.5"/>
	</g>
	<g id="XMLID_130_">
		<circle id="XMLID_530_" fill="#8CADDB" cx="237" cy="45.4" r="23.8"/>
	</g>
	<g id="XMLID_131_">
		<circle id="XMLID_528_" fill="#8CADDB" cx="74.3" cy="35.6" r="4.2"/>
	</g>
	<g id="XMLID_132_">
		<circle id="XMLID_526_" fill="#8CADDB" cx="108.6" cy="93.4" r="11.5"/>
	</g>
	<g id="XMLID_133_">
		<circle id="XMLID_524_" fill="#8CADDB" cx="170.5" cy="13.8" r="13.1"/>
	</g>
	<g id="XMLID_134_">
		<circle id="XMLID_522_" fill="#8CADDB" cx="30.2" cy="69.3" r="8.2"/>
	</g>
	<g id="XMLID_135_">
		<circle id="XMLID_520_" fill="#8CADDB" cx="293.7" cy="156.9" r="15"/>
	</g>
	<g id="XMLID_136_">
		<circle id="XMLID_518_" fill="#8CADDB" cx="18.7" cy="94.2" r="8"/>
	</g>
	<g id="XMLID_137_">
		<circle id="XMLID_516_" fill="#8CADDB" cx="12.5" cy="149.1" r="9.7"/>
	</g>
	<g id="XMLID_138_">
		<circle id="XMLID_514_" fill="#8CADDB" cx="147.4" cy="32.2" r="15.7"/>
	</g>
	<g id="XMLID_139_">
		<circle id="XMLID_512_" fill="#8CADDB" cx="69.3" cy="107.3" r="3"/>
	</g>
	<g id="XMLID_140_">
		<circle id="XMLID_510_" fill="#8CADDB" cx="77.7" cy="129.7" r="0.9"/>
	</g>
	<g id="XMLID_141_">
		<circle id="XMLID_508_" fill="#8CADDB" cx="115.2" cy="111.9" r="1.3"/>
	</g>
	<g id="XMLID_142_">
		<circle id="XMLID_506_" fill="#8CADDB" cx="74.6" cy="22.1" r="3.8"/>
	</g>
	<g id="XMLID_143_">
		<circle id="XMLID_504_" fill="#8CADDB" cx="153" cy="9.9" r="4.2"/>
	</g>
	<g id="XMLID_144_">
		<circle id="XMLID_502_" fill="#8CADDB" cx="41.3" cy="48.2" r="3.6"/>
	</g>
	<g id="XMLID_145_">
		<circle id="XMLID_500_" fill="#8CADDB" cx="58.1" cy="62.7" r="2.3"/>
	</g>
	<g id="XMLID_146_">
		<circle id="XMLID_498_" fill="#8CADDB" cx="14.2" cy="104.9" r="2.3"/>
	</g>
	<g id="XMLID_147_">
		<circle id="XMLID_496_" fill="#8CADDB" cx="253.8" cy="341.2" r="2.9"/>
	</g>
	<g id="XMLID_148_">
		<circle id="XMLID_494_" fill="#8CADDB" cx="117.3" cy="332.1" r="4.2"/>
	</g>
	<g id="XMLID_149_">
		<circle id="XMLID_492_" fill="#8CADDB" cx="154.7" cy="331.6" r="9.3"/>
	</g>
	<g id="XMLID_150_">
		<circle id="XMLID_490_" fill="#8CADDB" cx="175.9" cy="312" r="3"/>
	</g>
	<g id="XMLID_151_">
		<circle id="XMLID_488_" fill="#8CADDB" cx="237.5" cy="380.2" r="1.5"/>
	</g>
	<g id="XMLID_152_">
		<circle id="XMLID_486_" fill="#8CADDB" cx="117.6" cy="318.6" r="3.8"/>
	</g>
	<g id="XMLID_153_">
		<circle id="XMLID_484_" fill="#8CADDB" cx="192.9" cy="320.3" r="4.2"/>
	</g>
	<g id="XMLID_154_">
		<circle id="XMLID_482_" fill="#8CADDB" cx="183" cy="345.3" r="1.6"/>
	</g>
	<g id="XMLID_155_">
		<circle id="XMLID_480_" fill="#8CADDB" cx="85.3" cy="346.1" r="2.8"/>
	</g>
	<g id="XMLID_156_">
		<circle id="XMLID_478_" fill="#8CADDB" cx="101.3" cy="359.5" r="2.4"/>
	</g>
	<g id="XMLID_157_">
		<circle id="XMLID_476_" fill="#8CADDB" cx="114.5" cy="368.5" r="13"/>
	</g>
	<g id="XMLID_158_">
		<circle id="XMLID_474_" fill="#8CADDB" cx="79.3" cy="401.6" r="3.2"/>
	</g>
	<g id="XMLID_159_">
		<circle id="XMLID_472_" fill="#80C9C2" cx="48" cy="135.5" r="4.5"/>
	</g>
	<g id="XMLID_160_">
		<circle id="XMLID_470_" fill="#80C9C2" cx="41.1" cy="180.9" r="2.3"/>
	</g>
	<g id="XMLID_161_">
		<circle id="XMLID_468_" fill="#80C9C2" cx="86" cy="127.2" r="3.5"/>
	</g>
	<g id="XMLID_162_">
		<circle id="XMLID_466_" fill="#80C9C2" cx="28.6" cy="197.3" r="2.3"/>
	</g>
	<g id="XMLID_163_">
		<circle id="XMLID_464_" fill="#80C9C2" cx="163.1" cy="401.7" r="16.8"/>
	</g>
	<g id="XMLID_164_">
		<circle id="XMLID_462_" fill="#80C9C2" cx="169.2" cy="422.1" r="3.5"/>
	</g>
	<g id="XMLID_165_">
		<circle id="XMLID_460_" fill="#80C9C2" cx="133.7" cy="324.1" r="12.2"/>
	</g>
	<g id="XMLID_166_">
		<circle id="XMLID_458_" fill="#EF5656" cx="67.9" cy="28.6" r="4.8"/>
	</g>
	<g id="XMLID_167_">
		<circle id="XMLID_456_" fill="#EF5656" cx="120.6" cy="48.9" r="4.1"/>
	</g>
	<g id="XMLID_168_">
		<circle id="XMLID_454_" fill="#EF5656" cx="106.3" cy="17.3" r="4.1"/>
	</g>
	<g id="XMLID_169_">
		<circle id="XMLID_452_" fill="#EF5656" cx="180.6" cy="88" r="3"/>
	</g>
	<g id="XMLID_170_">
		<circle id="XMLID_450_" fill="#EF5656" cx="52.1" cy="125.9" r="5.2"/>
	</g>
	<g id="XMLID_171_">
		<circle id="XMLID_448_" fill="#EF5656" cx="22.2" cy="227.4" r="6.4"/>
	</g>
	<g id="XMLID_172_">
		<circle id="XMLID_446_" fill="#EF5656" cx="289.2" cy="234.2" r="2.5"/>
	</g>
	<g id="XMLID_173_">
		<circle id="XMLID_444_" fill="#EF5656" cx="271.7" cy="137.7" r="13.1"/>
	</g>
	<g id="XMLID_174_">
		<circle id="XMLID_442_" fill="#EF5656" cx="226.1" cy="189.3" r="5.3"/>
	</g>
	<g id="XMLID_175_">
		<circle id="XMLID_440_" fill="#EF5656" cx="194.3" cy="185.4" r="1.7"/>
	</g>
	<g id="XMLID_176_">
		<circle id="XMLID_438_" fill="#EF5656" cx="189.1" cy="7.7" r="6"/>
	</g>
	<g id="XMLID_177_">
		<circle id="XMLID_436_" fill="#EF5656" cx="144.3" cy="9.1" r="4"/>
	</g>
	<g id="XMLID_178_">
		<circle id="XMLID_434_" fill="#EF5656" cx="82.6" cy="189.4" r="5.3"/>
	</g>
	<g id="XMLID_179_">
		<circle id="XMLID_432_" fill="#EF5656" cx="114.4" cy="185.5" r="1.7"/>
	</g>
	<g id="XMLID_180_">
		<circle id="XMLID_430_" fill="#EF5656" cx="110.9" cy="325.1" r="4.8"/>
	</g>
	<g id="XMLID_181_">
		<circle id="XMLID_428_" fill="#EF5656" cx="158.2" cy="368.7" r="3"/>
	</g>
	<g id="XMLID_182_">
		<circle id="XMLID_426_" fill="#EF5656" cx="202.8" cy="332.5" r="10.8"/>
	</g>
	<g id="XMLID_183_">
		<circle id="XMLID_424_" fill="#EF5656" cx="224.1" cy="414.1" r="5.1"/>
	</g>
	<g id="XMLID_184_">
		<circle id="XMLID_422_" fill="#EF5656" cx="197.3" cy="368.8" r="12.2"/>
	</g>
	<g id="XMLID_185_">
		<circle id="XMLID_420_" fill="#EF5656" cx="168.8" cy="317" r="2.9"/>
	</g>
	<g id="XMLID_186_">
		<circle id="XMLID_418_" fill="#EF5656" cx="133.4" cy="338.6" r="1.5"/>
	</g>
	<g id="XMLID_187_">
		<circle id="XMLID_416_" fill="#5A6BB2" cx="206.6" cy="19.9" r="14.2"/>
	</g>
	<g id="XMLID_188_">
		<circle id="XMLID_414_" fill="#5A6BB2" cx="148.8" cy="5.4" r="1.6"/>
	</g>
	<g id="XMLID_189_">
		<circle id="XMLID_412_" fill="#5A6BB2" cx="100.3" cy="14.2" r="1.8"/>
	</g>
	<g id="XMLID_190_">
		<circle id="XMLID_410_" fill="#5A6BB2" cx="111.9" cy="15.8" r="1.6"/>
	</g>
	<g id="XMLID_191_">
		<circle id="XMLID_408_" fill="#5A6BB2" cx="181.9" cy="2.7" r="2.4"/>
	</g>
	<g id="XMLID_192_">
		<circle id="XMLID_406_" fill="#5A6BB2" cx="197.4" cy="88.5" r="5.3"/>
	</g>
	<g id="XMLID_193_">
		<circle id="XMLID_404_" fill="#5A6BB2" cx="195.7" cy="194.9" r="1.7"/>
	</g>
	<g id="XMLID_194_">
		<circle id="XMLID_402_" fill="#5A6BB2" cx="232.9" cy="187" r="1.5"/>
	</g>
	<g id="XMLID_195_">
		<circle id="XMLID_400_" fill="#5A6BB2" cx="102.1" cy="54.6" r="14.4"/>
	</g>
	<g id="XMLID_196_">
		<circle id="XMLID_398_" fill="#5A6BB2" cx="113" cy="195" r="1.7"/>
	</g>
	<g id="XMLID_197_">
		<circle id="XMLID_396_" fill="#5A6BB2" cx="75.8" cy="187.1" r="1.5"/>
	</g>
	<g id="XMLID_198_">
		<circle id="XMLID_394_" fill="#5A6BB2" cx="196.5" cy="423.8" r="22.7"/>
	</g>
	<g id="XMLID_199_">
		<circle id="XMLID_392_" fill="#5A6BB2" cx="235.1" cy="372.9" r="5"/>
	</g>
	<g id="XMLID_200_">
		<circle id="XMLID_390_" fill="#60BDEB" cx="103.3" cy="75.8" r="5.2"/>
	</g>
	<g id="XMLID_201_">
		<circle id="XMLID_388_" fill="#60BDEB" cx="161.6" cy="84.3" r="6.4"/>
	</g>
	<g id="XMLID_202_">
		<circle id="XMLID_386_" fill="#60BDEB" cx="269.6" cy="161.1" r="7.8"/>
	</g>
	<g id="XMLID_203_">
		<circle id="XMLID_384_" fill="#60BDEB" cx="188.1" cy="191.2" r="6.5"/>
	</g>
	<g id="XMLID_204_">
		<circle id="XMLID_382_" fill="#60BDEB" cx="243.1" cy="198.6" r="3.4"/>
	</g>
	<g id="XMLID_205_">
		<circle id="XMLID_380_" fill="#60BDEB" cx="219.9" cy="192.5" r="1.5"/>
	</g>
	<g id="XMLID_206_">
		<circle id="XMLID_378_" fill="#60BDEB" cx="268.8" cy="52.6" r="7.9"/>
	</g>
	<g id="XMLID_207_">
		<circle id="XMLID_376_" fill="#60BDEB" cx="37.4" cy="56.4" r="5.2"/>
	</g>
	<g id="XMLID_208_">
		<circle id="XMLID_374_" fill="#60BDEB" cx="116.5" cy="106.9" r="3.2"/>
	</g>
	<g id="XMLID_209_">
		<circle id="XMLID_372_" fill="#60BDEB" cx="13.9" cy="219.3" r="4.2"/>
	</g>
	<g id="XMLID_210_">
		<circle id="XMLID_370_" fill="#60BDEB" cx="299.7" cy="214.3" r="2.9"/>
	</g>
	<g id="XMLID_211_">
		<circle id="XMLID_368_" fill="#60BDEB" cx="35.6" cy="201" r="3.4"/>
	</g>
	<g id="XMLID_212_">
		<circle id="XMLID_366_" fill="#60BDEB" cx="120.7" cy="191.3" r="6.5"/>
	</g>
	<g id="XMLID_213_">
		<circle id="XMLID_364_" fill="#60BDEB" cx="65.6" cy="198.7" r="3.4"/>
	</g>
	<g id="XMLID_214_">
		<circle id="XMLID_362_" fill="#60BDEB" cx="88.8" cy="192.6" r="1.5"/>
	</g>
	<g id="XMLID_215_">
		<circle id="XMLID_360_" fill="#60BDEB" cx="223.4" cy="352.5" r="17.4"/>
	</g>
	<g id="XMLID_216_">
		<circle id="XMLID_358_" fill="#60BDEB" cx="94.7" cy="429.8" r="3.6"/>
	</g>
	<g id="XMLID_217_">
		<circle id="XMLID_356_" fill="#60BDEB" cx="105" cy="390" r="9.1"/>
	</g>
	<g id="XMLID_218_">
		<circle id="XMLID_354_" fill="#60BDEB" cx="94.3" cy="411" r="13.6"/>
	</g>
	<g id="XMLID_219_">
		<circle id="XMLID_352_" fill="#60BDEB" cx="73.2" cy="365.8" r="8.2"/>
	</g>
	<g id="XMLID_220_">
		<circle id="XMLID_350_" fill="#60BDEB" cx="127.7" cy="386.9" r="8.7"/>
	</g>
	<g id="XMLID_221_">
		<g id="XMLID_799_">
			<circle id="XMLID_800_" fill="#60BDEB" cx="101.9" cy="342.3" r="13.7"/>
		</g>
	</g>
	<g id="XMLID_223_">
		<circle id="XMLID_348_" fill="#60BDEB" cx="183.5" cy="381.1" r="5.2"/>
	</g>
	<g id="XMLID_224_">
		<circle id="XMLID_346_" fill="#60BDEB" cx="220.2" cy="390.3" r="17.3"/>
	</g>
	<g id="XMLID_225_">
		<circle id="XMLID_345_" fill="#60BDEB" cx="80.4" cy="352.9" r="5.2"/>
	</g>
	<g id="XMLID_226_">
		<circle id="XMLID_343_" fill="#60BDEB" cx="230.8" cy="407.5" r="2.6"/>
	</g>
	<g id="XMLID_227_">
		<circle id="XMLID_341_" fill="#60BDEB" cx="195.4" cy="389.8" r="6.7"/>
	</g>
	<g id="XMLID_228_">
		<circle id="XMLID_339_" fill="#60BDEB" cx="246.1" cy="345.7" r="5.3"/>
	</g>
	<g id="XMLID_229_">
		<circle id="XMLID_337_" fill="#9D87BF" cx="135.6" cy="71.2" r="22.1"/>
	</g>
	<g id="XMLID_230_">
		<circle id="XMLID_335_" fill="#9D87BF" cx="31.1" cy="166.1" r="14.7"/>
	</g>
	<g id="XMLID_231_">
		<g id="XMLID_796_">
			<circle id="XMLID_797_" fill="#9D87BF" cx="39.8" cy="88.4" r="12.9"/>
		</g>
	</g>
	<g id="XMLID_233_">
		<circle id="XMLID_333_" fill="#9D87BF" cx="130.3" cy="43" r="3.4"/>
	</g>
	<g id="XMLID_234_">
		<circle id="XMLID_331_" fill="#9D87BF" cx="95.1" cy="121.9" r="6.4"/>
	</g>
	<g id="XMLID_235_">
		<circle id="XMLID_329_" fill="#9D87BF" cx="94.7" cy="97.4" r="2.3"/>
	</g>
	<g id="XMLID_236_">
		<circle id="XMLID_327_" fill="#9D87BF" cx="111.1" cy="77.2" r="2.3"/>
	</g>
	<g id="XMLID_237_">
		<circle id="XMLID_325_" fill="#9D87BF" cx="99.8" cy="82.7" r="1.4"/>
	</g>
	<g id="XMLID_238_">
		<circle id="XMLID_323_" fill="#9D87BF" cx="31.2" cy="145" r="2.7"/>
	</g>
	<g id="XMLID_239_">
		<circle id="XMLID_321_" fill="#9D87BF" cx="124.5" cy="96.2" r="4"/>
	</g>
	<g id="XMLID_240_">
		<circle id="XMLID_319_" fill="#9D87BF" cx="100.1" cy="107.5" r="4.2"/>
	</g>
	<g id="XMLID_241_">
		<circle id="XMLID_317_" fill="#9D87BF" cx="218.4" cy="85.2" r="14.9"/>
	</g>
	<g id="XMLID_242_">
		<circle id="XMLID_316_" fill="#9D87BF" cx="263.2" cy="93.8" r="27.9"/>
	</g>
	<g id="XMLID_243_">
		<circle id="XMLID_313_" fill="#9D87BF" cx="114.5" cy="433.2" r="15.4"/>
	</g>
	<g id="XMLID_244_">
		<circle id="XMLID_311_" fill="#9D87BF" cx="146.5" cy="377.7" r="11.1"/>
	</g>
	<g id="XMLID_245_">
		<g id="XMLID_798_">
			<circle id="XMLID_801_" fill="#9D87BF" cx="84" cy="386.1" r="11.6"/>
		</g>
	</g>
	<g id="XMLID_247_">
		<circle id="XMLID_309_" fill="#9D87BF" cx="142.4" cy="338.8" r="4.4"/>
	</g>
	<g id="XMLID_248_">
		<circle id="XMLID_307_" fill="#9D87BF" cx="178.2" cy="369.6" r="6.4"/>
	</g>
	<g id="XMLID_249_">
		<circle id="XMLID_305_" fill="#9D87BF" cx="129.8" cy="401.3" r="3.3"/>
	</g>
	<g id="XMLID_250_">
		<circle id="XMLID_303_" fill="#9D87BF" cx="90.5" cy="373.5" r="1.6"/>
	</g>
	<g id="XMLID_251_">
		<circle id="XMLID_301_" fill="#9D87BF" cx="73" cy="354.3" r="1.6"/>
	</g>
	<g id="XMLID_252_">
		<circle id="XMLID_299_" fill="#9D87BF" cx="116" cy="384.9" r="2.3"/>
	</g>
	<g id="XMLID_253_">
		<circle id="XMLID_297_" fill="#9D87BF" cx="195.3" cy="450.3" r="2.5"/>
	</g>
	<g id="XMLID_254_">
		<circle id="XMLID_295_" fill="#9D87BF" cx="130.4" cy="364.7" r="2.7"/>
	</g>
	<g id="XMLID_255_">
		<circle id="XMLID_293_" fill="#9D87BF" cx="127.7" cy="361.7" r="1.1"/>
	</g>
	<g id="XMLID_256_">
		<circle id="XMLID_314_" fill="#9D87BF" cx="178.2" cy="330.7" r="13.1"/>
	</g>
	<g id="XMLID_257_">
		<circle id="XMLID_772_" fill="#C11E5D" cx="184.2" cy="56.7" r="27.6"/>
	</g>
	<g id="XMLID_258_">
		<circle id="XMLID_774_" fill="#C11E5D" cx="289.2" cy="196.1" r="17.4"/>
	</g>
	<g id="XMLID_259_">
		<ellipse id="XMLID_776_" fill="#C11E5D" cx="188.3" cy="89" rx="3.4" ry="3.4"/>
	</g>
	<g id="XMLID_260_">
		<circle id="XMLID_778_" fill="#E6EB9C" cx="184.7" cy="453.1" r="7.1"/>
	</g>
	<g id="XMLID_268_">
		<circle id="XMLID_780_" fill="#5CC4D7" cx="139.3" cy="397.3" r="6.3"/>
	</g>
	<g id="XMLID_261_">
		<circle id="XMLID_782_" fill="#FCF6C5" cx="212.5" cy="370.7" r="2.6"/>
	</g>
	<g id="XMLID_262_">
		<circle id="XMLID_784_" fill="#5CC4D7" cx="120.4" cy="102.1" r="2.5"/>
	</g>
	<g id="XMLID_263_">
		<circle id="XMLID_785_" fill="#EF4881" cx="131.9" cy="20.3" r="3.4"/>
	</g>
</g>
<g id="Layer_2" display="none">
</g>
</svg>
