<?xml version="1.0" encoding="utf-8"?>
<!-- Generator: Adobe Illustrator 18.1.0, SVG Export Plug-In . SVG Version: 6.00 Build 0)  -->
<svg version="1.1" xmlns="http://www.w3.org/2000/svg" xmlns:xlink="http://www.w3.org/1999/xlink" x="0px" y="0px"
	 viewBox="0 0 595.3 482" enable-background="new 0 0 595.3 482" xml:space="preserve">

<g id="Layer_2">
	<path id="XMLID_292_" fill="#5CC4D7" d="M189.2,128.7c0,10.7-8.6,19.3-19.3,19.3c-10.7,0-19.3-8.6-19.3-19.3
		c0-10.7,8.6-19.3,19.3-19.3C180.6,109.4,189.2,118.1,189.2,128.7"/>
	<g id="XMLID_290_">
		<path id="XMLID_291_" fill="#5ABFED" d="M187.5,51.8c0-7.7,6.2-13.9,13.9-13.9c7.7,0,13.9,6.2,13.9,13.9c0,7.7-6.2,13.9-13.9,13.9
			C193.7,65.7,187.5,59.5,187.5,51.8"/>
	</g>
	<path id="XMLID_288_" fill="#D11D59" d="M240.6,87.3c0,12.6-10.2,22.7-22.7,22.7c-12.6,0-22.7-10.2-22.7-22.7
		c0-12.5,10.2-22.7,22.7-22.7C230.5,64.5,240.6,74.7,240.6,87.3"/>
	<path id="XMLID_262_" fill="#C41E59" d="M319.8,451.8c0,13.5-10.9,24.4-24.4,24.4c-13.5,0-24.4-10.9-24.4-24.4
		c0-13.5,10.9-24.4,24.4-24.4C308.9,427.4,319.8,438.3,319.8,451.8"/>
	<path id="XMLID_248_" fill="#8CADDB" d="M403.6,51.5c0,13.3-10.8,24.1-24.1,24.1c-13.3,0-24-10.8-24-24.1c0-13.3,10.8-24,24-24
		C392.8,27.4,403.6,38.2,403.6,51.5"/>
	<path id="XMLID_243_" fill="#8CADDB" d="M421.1,163c0,8.4,6.8,15.2,15.2,15.2c8.4,0,15.2-6.8,15.2-15.2s-6.8-15.2-15.2-15.2
		C427.9,147.8,421.1,154.6,421.1,163"/>
	<path id="XMLID_240_" fill="#8CADDB" d="M305.8,38.3c0,8.7-7.1,15.8-15.8,15.8c-8.7,0-15.8-7.1-15.8-15.8c0-8.7,7.1-15.8,15.8-15.8
		C298.7,22.5,305.8,29.5,305.8,38.3"/>
	<path id="XMLID_221_" fill="#8CADDB" d="M270.2,374.6c0,7.2-5.9,13.1-13.1,13.1c-7.2,0-13.1-5.9-13.1-13.1
		c0-7.2,5.9-13.1,13.1-13.1C264.3,361.4,270.2,367.3,270.2,374.6"/>
	<path id="XMLID_215_" fill="#80C9C2" d="M322.6,407.7c0,9.4-7.6,17-17,17c-9.4,0-17-7.6-17-17c0-9.4,7.6-17,17-17
		C315,390.7,322.6,398.3,322.6,407.7"/>
	<path id="XMLID_180_" fill="#5A6BB2" d="M316.1,429.9c0-12.7,10.3-23,23-23c12.7,0,23,10.3,23,23c0,12.7-10.3,23-23,23
		C326.3,452.8,316.1,442.6,316.1,429.9"/>
	<path id="XMLID_163_" fill="#60BDEB" d="M348.5,358.5c0,9.7,7.9,17.5,17.5,17.5c9.7,0,17.5-7.9,17.5-17.5c0-9.7-7.9-17.5-17.5-17.5
		C356.3,341,348.5,348.9,348.5,358.5"/>
	<path id="XMLID_160_" fill="#60BDEB" d="M250.6,417c0,7.6-6.1,13.7-13.7,13.7c-7.6,0-13.7-6.1-13.7-13.7c0-7.6,6.1-13.7,13.7-13.7
		C244.5,403.3,250.6,409.5,250.6,417"/>
	<g id="XMLID_156_">
		<path id="XMLID_157_" fill="#60BDEB" d="M230.6,348.3c0-7.7,6.2-13.9,13.9-13.9c7.7,0,13.9,6.2,13.9,13.9
			c0,7.7-6.2,13.9-13.9,13.9C236.8,362.2,230.6,356,230.6,348.3"/>
	</g>
	<path id="XMLID_154_" fill="#60BDEB" d="M380.2,396.3c0,9.6-7.8,17.4-17.4,17.4c-9.6,0-17.4-7.8-17.4-17.4s7.8-17.4,17.4-17.4
		C372.4,378.9,380.2,386.7,380.2,396.3"/>
	<path id="XMLID_149_" fill="#9D87BF" d="M300.5,77.2c0,12.3-10,22.3-22.3,22.3c-12.3,0-22.3-10-22.3-22.3c0-12.3,10-22.3,22.3-22.3
		C290.5,54.9,300.5,64.9,300.5,77.2"/>
	<path id="XMLID_148_" fill="#9D87BF" d="M188.5,172.1c0,8.2-6.6,14.8-14.8,14.8c-8.2,0-14.8-6.6-14.8-14.8
		c0-8.2,6.6-14.8,14.8-14.8C181.9,157.3,188.5,163.9,188.5,172.1"/>
	<path id="XMLID_136_" fill="#9D87BF" d="M434,99.9c0,15.5-12.6,28.1-28.1,28.1c-15.5,0-28.1-12.6-28.1-28.1s12.6-28.1,28.1-28.1
		C421.4,71.7,434,84.3,434,99.9"/>
	<path id="XMLID_121_" fill="#C11E5D" d="M354.7,62.7c0,15.4-12.5,27.9-27.9,27.9c-15.4,0-27.9-12.5-27.9-27.9
		c0-15.4,12.5-27.9,27.9-27.9C342.2,34.9,354.7,47.3,354.7,62.7"/>
	<path id="XMLID_120_" fill="#C11E5D" d="M414.2,202.2c0-9.7,7.9-17.6,17.6-17.6c9.7,0,17.6,7.9,17.6,17.6c0,9.7-7.9,17.6-17.6,17.6
		C422.1,219.8,414.2,211.9,414.2,202.2"/>
	<path id="XMLID_122_" fill="#9D87BF" d="M334,336.4c0,7.3-5.9,13.2-13.2,13.2c-7.3,0-13.2-5.9-13.2-13.2c0-7.3,5.9-13.2,13.2-13.2
		C328.1,323.1,334,329.1,334,336.4"/>
	<path id="XMLID_135_" fill="#9D87BF" d="M272.9,438.9c0,8.6-6.9,15.5-15.5,15.5c-8.6,0-15.5-6.9-15.5-15.5
		c0-8.6,6.9-15.5,15.5-15.5C265.9,423.4,272.9,430.3,272.9,438.9"/>
</g>
<g id="Layer_3" opacity="0.47">
	<path id="XMLID_12_" fill="#5CC4D7" d="M155,416.6c8,7.1,8.7,19.3,1.6,27.2c-7.1,8-19.3,8.7-27.2,1.6c-8-7.1-8.7-19.3-1.6-27.2
		C134.8,410.2,147,409.5,155,416.6"/>
	<g id="XMLID_10_">
		<path id="XMLID_11_" fill="#5ABFED" d="M15.7,358c-5.7-5.1-6.2-13.9-1.1-19.6c5.1-5.7,13.9-6.2,19.6-1.1
			c5.7,5.1,6.2,13.9,1.1,19.6C30.2,362.6,21.5,363.1,15.7,358"/>
	</g>
	<path id="XMLID_9_" fill="#D11D59" d="M77.5,341.9c9.4,8.3,10.2,22.7,1.9,32.1c-8.3,9.4-22.7,10.2-32.1,1.9
		c-9.4-8.3-10.2-22.7-1.9-32.1C53.8,334.4,68.2,333.6,77.5,341.9"/>
	<path id="XMLID_8_" fill="#8CADDB" d="M149.4,326.9c9.9,8.8,10.8,24,2,34c-8.8,9.9-24,10.8-34,2c-9.9-8.8-10.8-24-2-34
		C124.2,318.9,139.4,318,149.4,326.9"/>
	<path id="XMLID_7_" fill="#8CADDB" d="M144.3,401.5c6.3,5.6,15.8,5,21.4-1.2c5.6-6.3,5-15.8-1.2-21.4c-6.3-5.6-15.8-5-21.4,1.2
		C137.4,386.3,138,395.9,144.3,401.5"/>
	<path id="XMLID_6_" fill="#8CADDB" d="M74.4,391.2c6.5,5.8,7.1,15.8,1.3,22.3c-5.8,6.5-15.8,7.1-22.3,1.3
		c-6.5-5.8-7.1-15.8-1.3-22.3C57.9,386,67.9,385.4,74.4,391.2"/>
	<path id="XMLID_5_" fill="#9D87BF" d="M100,421c9.2,8.2,10,22.3,1.8,31.5c-8.2,9.2-22.3,10-31.5,1.8c-9.2-8.2-10-22.3-1.8-31.5
		C76.7,413.7,90.8,412.9,100,421"/>
	<path id="XMLID_4_" fill="#9D87BF" d="M187,445.9c6.1,5.5,6.7,14.8,1.2,20.9c-5.4,6.1-14.8,6.7-20.9,1.2
		c-6.1-5.4-6.7-14.8-1.2-20.9C171.5,441,180.9,440.5,187,445.9"/>
	<path id="XMLID_3_" fill="#9D87BF" d="M204.9,331.3c8.4,7.5,9,20.6,1.3,29.3c-7.7,8.7-20.8,9.6-29.3,2.1c-8.4-7.5-9-20.6-1.3-29.3
		C183.4,324.7,196.5,323.8,204.9,331.3"/>
	<path id="XMLID_2_" fill="#C11E5D" d="M125.2,370.9c11.5,10.2,12.5,27.9,2.3,39.4c-10.2,11.5-27.9,12.5-39.4,2.3
		c-11.5-10.2-12.5-27.9-2.3-39.4C96.1,361.7,113.7,360.7,125.2,370.9"/>
	<path id="XMLID_1_" fill="#C11E5D" d="M169,432.7c-7.2-6.5-7.9-17.6-1.4-24.8c6.5-7.2,17.6-7.9,24.8-1.4c7.3,6.5,7.9,17.6,1.4,24.8
		C187.3,438.5,176.2,439.2,169,432.7"/>
	<path id="XMLID_24_" fill="#5CC4D7" d="M493.3,389.2c8,7.1,8.7,19.3,1.6,27.2c-7.1,8-19.3,8.7-27.2,1.6c-8-7.1-8.7-19.3-1.6-27.2
		C473.2,382.8,485.4,382.1,493.3,389.2"/>
	<g id="XMLID_22_">
		<path id="XMLID_23_" fill="#5ABFED" d="M354,330.5c-5.7-5.1-6.2-13.9-1.1-19.6c5.1-5.7,13.9-6.2,19.6-1.1s6.2,13.9,1.1,19.6
			C368.6,335.1,359.8,335.6,354,330.5"/>
	</g>
	<path id="XMLID_21_" fill="#D11D59" d="M415.9,314.5c9.4,8.3,10.2,22.7,1.9,32.1c-8.3,9.4-22.7,10.2-32.1,1.9
		c-9.4-8.3-10.2-22.7-1.9-32.1C392.1,307,406.5,306.1,415.9,314.5"/>
	<path id="XMLID_20_" fill="#8CADDB" d="M487.7,299.4c9.9,8.8,10.8,24,2,34c-8.8,9.9-24,10.8-34,2c-9.9-8.8-10.8-24-2-34
		C462.5,291.5,477.7,290.6,487.7,299.4"/>
	<path id="XMLID_19_" fill="#8CADDB" d="M482.6,374.1c6.3,5.6,15.8,5,21.4-1.2c5.6-6.3,5-15.8-1.2-21.4s-15.8-5-21.4,1.2
		C475.8,358.9,476.3,368.5,482.6,374.1"/>
	<path id="XMLID_18_" fill="#8CADDB" d="M412.8,363.8c6.5,5.8,7.1,15.8,1.3,22.3c-5.8,6.5-15.8,7.1-22.3,1.3
		c-6.5-5.8-7.1-15.8-1.3-22.3C396.2,358.5,406.2,357.9,412.8,363.8"/>
	<path id="XMLID_17_" fill="#9D87BF" d="M438.3,393.6c9.2,8.2,10,22.3,1.8,31.5c-8.2,9.2-22.3,10-31.5,1.8
		c-9.2-8.2-10-22.3-1.8-31.5C415,386.2,429.1,385.4,438.3,393.6"/>
	<path id="XMLID_16_" fill="#9D87BF" d="M525.3,418.5c6.1,5.5,6.7,14.8,1.2,20.9c-5.4,6.1-14.8,6.7-20.9,1.2
		c-6.1-5.4-6.7-14.8-1.2-20.9C509.8,413.6,519.2,413.1,525.3,418.5"/>
	<path id="XMLID_15_" fill="#9D87BF" d="M544,309c11.6,10.3,12.6,28.1,2.3,39.7c-10.3,11.6-28.1,12.6-39.7,2.3
		c-11.6-10.3-12.6-28.1-2.3-39.7C514.6,299.7,532.4,298.6,544,309"/>
	<path id="XMLID_14_" fill="#C11E5D" d="M463.5,343.5c11.5,10.2,12.5,27.9,2.3,39.4c-10.2,11.5-27.9,12.5-39.4,2.3
		c-11.5-10.2-12.5-27.9-2.3-39.4C434.4,334.3,452.1,333.2,463.5,343.5"/>
	<path id="XMLID_13_" fill="#C11E5D" d="M507.3,405.3c-7.2-6.5-7.9-17.6-1.4-24.8c6.5-7.2,17.6-7.9,24.8-1.4
		c7.3,6.5,7.9,17.6,1.4,24.8C525.6,411.1,514.5,411.7,507.3,405.3"/>
	<path id="XMLID_36_" fill="#5CC4D7" d="M531.8,66.4c8.4,6.5,9.9,18.7,3.4,27.1c-6.5,8.4-18.7,9.9-27.1,3.4
		c-8.4-6.5-9.9-18.7-3.4-27.1C511.3,61.4,523.4,59.8,531.8,66.4"/>
	<g id="XMLID_34_">
		<path id="XMLID_35_" fill="#5ABFED" d="M379.9,23c-6.1-4.7-7.2-13.4-2.5-19.5c4.7-6.1,13.4-7.2,19.5-2.5
			c6.1,4.7,7.2,13.4,2.5,19.5C394.7,26.6,386,27.7,379.9,23"/>
	</g>
	<path id="XMLID_33_" fill="#D11D59" d="M440.5,2.8c9.9,7.7,11.7,22,4,31.9c-7.7,9.9-22,11.7-31.9,4c-9.9-7.7-11.7-22-4-31.9
		C416.3-3.1,430.6-4.9,440.5,2.8"/>
	<path id="XMLID_31_" fill="#8CADDB" d="M520.1,52c6.6,5.1,16.1,3.9,21.3-2.7c5.1-6.6,3.9-16.1-2.7-21.3c-6.6-5.1-16.1-3.9-21.3,2.7
		C512.2,37.4,513.4,46.9,520.1,52"/>
	<path id="XMLID_30_" fill="#8CADDB" d="M449.7,46.4c6.9,5.4,8.1,15.3,2.8,22.2c-5.4,6.9-15.3,8.1-22.2,2.8
		c-6.9-5.4-8.1-15.3-2.8-22.2C432.9,42.3,442.8,41.1,449.7,46.4"/>
	<path id="XMLID_29_" fill="#9D87BF" d="M477.2,74.5c9.7,7.5,11.5,21.5,3.9,31.3c-7.5,9.7-21.5,11.5-31.3,3.9
		c-9.7-7.5-11.5-21.5-3.9-31.3C453.5,68.7,467.5,67,477.2,74.5"/>
	<path id="XMLID_28_" fill="#9D87BF" d="M565.7,93.5c6.5,5,7.6,14.3,2.6,20.8c-5,6.5-14.3,7.6-20.8,2.6c-6.5-5-7.6-14.3-2.6-20.8
		C549.9,89.6,559.2,88.5,565.7,93.5"/>
	<path id="XMLID_26_" fill="#C11E5D" d="M499,22.8c12.2,9.4,14.4,27,4.9,39.1c-9.4,12.2-27,14.4-39.1,4.9
		c-12.2-9.4-14.4-27-4.9-39.1C469.4,15.6,486.9,13.4,499,22.8"/>
	<path id="XMLID_25_" fill="#C11E5D" d="M546.8,81.5c-7.7-6-9.1-17-3.1-24.7c6-7.7,17-9.1,24.7-3.1c7.7,6,9.1,17,3.1,24.7
		C565.5,86.1,554.5,87.5,546.8,81.5"/>
	<path id="XMLID_48_" fill="#5CC4D7" d="M547,183.5c8.9-5.9,20.9-3.5,26.8,5.4c5.9,8.9,3.5,20.9-5.4,26.8
		c-8.9,5.9-20.8,3.5-26.7-5.4C535.7,201.4,538.1,189.4,547,183.5"/>
	<path id="XMLID_45_" fill="#D11D59" d="M455.1,239.5c10.5-6.9,24.6-4.1,31.5,6.3c6.9,10.5,4.1,24.6-6.3,31.5
		c-10.5,6.9-24.6,4.1-31.5-6.3C441.8,260.5,444.6,246.4,455.1,239.5"/>
	<path id="XMLID_44_" fill="#8CADDB" d="M466.9,168.1c9.7-6.4,22.7-3.8,29.2,5.9c6.4,9.7,3.8,22.7-5.9,29.2
		c-9.7,6.4-22.7,3.8-29.2-5.9C454.6,187.6,457.2,174.5,466.9,168.1"/>
	<path id="XMLID_43_" fill="#8CADDB" d="M529.7,190.1c7-4.6,8.9-14.1,4.2-21c-4.6-7-14.1-8.9-21-4.2c-7,4.6-8.9,14.1-4.2,21
		C513.3,192.8,522.7,194.7,529.7,190.1"/>
	<path id="XMLID_42_" fill="#8CADDB" d="M502,255c7.3-4.8,17.1-2.9,21.9,4.4c4.8,7.3,2.9,17.1-4.4,21.9c-7.3,4.8-17.1,2.9-21.9-4.4
		C492.7,269.6,494.7,259.8,502,255"/>
	<path id="XMLID_41_" fill="#9D87BF" d="M537.3,237.8c10.2-6.8,24.1-4,30.9,6.2c6.8,10.2,4,24.1-6.2,30.9c-10.2,6.8-24.1,4-30.9-6.2
		C524.3,258.5,527.1,244.7,537.3,237.8"/>
	<path id="XMLID_39_" fill="#9D87BF" d="M482.3,114.1c12.9-8.6,30.4-5.1,39,7.9c8.6,12.9,5.1,30.4-7.9,39s-30.4,5.1-39-7.9
		C465.8,140.2,469.3,122.7,482.3,114.1"/>
	<path id="XMLID_38_" fill="#C11E5D" d="M495.3,200.7c12.8-8.5,30.1-5,38.7,7.8c8.5,12.8,5,30.1-7.8,38.7c-12.8,8.5-30.1,5-38.6-7.8
		C479,226.5,482.4,209.2,495.3,200.7"/>
	<path id="XMLID_37_" fill="#C11E5D" d="M566.1,174.1c-8.1,5.4-19,3.2-24.4-4.9c-5.4-8.1-3.2-19,4.9-24.4c8.1-5.4,19-3.2,24.4,4.9
		C576.4,157.8,574.2,168.7,566.1,174.1"/>
	<path id="XMLID_59_" fill="#5CC4D7" d="M114.8,100.5c8,7.1,8.7,19.3,1.6,27.2c-7.1,8-19.3,8.7-27.2,1.6c-8-7.1-8.7-19.3-1.6-27.2
		C94.6,94.2,106.8,93.5,114.8,100.5"/>
	<path id="XMLID_56_" fill="#D11D59" d="M37.3,25.9c9.4,8.3,10.2,22.7,1.9,32.1c-8.3,9.4-22.7,10.2-32.1,1.9
		c-9.4-8.3-10.2-22.7-1.9-32.1C13.6,18.3,28,17.5,37.3,25.9"/>
	<path id="XMLID_55_" fill="#8CADDB" d="M109.1,10.8c9.9,8.8,10.8,24,2,34c-8.8,9.9-24,10.8-34,2c-9.9-8.8-10.8-24-2-34
		C84,2.9,99.2,2,109.1,10.8"/>
	<path id="XMLID_54_" fill="#8CADDB" d="M104.1,85.5c6.3,5.6,15.8,5,21.4-1.2c5.6-6.3,5-15.8-1.2-21.4s-15.8-5-21.4,1.2
		C97.2,70.3,97.8,79.9,104.1,85.5"/>
	<path id="XMLID_53_" fill="#8CADDB" d="M34.2,75.1c6.5,5.8,7.1,15.8,1.3,22.3c-5.8,6.5-15.8,7.1-22.3,1.3
		C6.7,92.9,6.1,83,11.9,76.4C17.7,69.9,27.7,69.3,34.2,75.1"/>
	<path id="XMLID_52_" fill="#9D87BF" d="M59.8,105c9.2,8.2,10,22.3,1.8,31.5c-8.2,9.2-22.3,10-31.5,1.8c-9.2-8.2-10-22.3-1.8-31.5
		C36.5,97.6,50.6,96.8,59.8,105"/>
	<path id="XMLID_51_" fill="#9D87BF" d="M146.8,129.9c6.1,5.5,6.7,14.8,1.2,20.9c-5.4,6.1-14.8,6.7-20.9,1.2
		c-6.1-5.4-6.7-14.8-1.2-20.9C131.3,125,140.6,124.4,146.8,129.9"/>
	<path id="XMLID_50_" fill="#9D87BF" d="M165.5,20.4c11.6,10.3,12.6,28.1,2.3,39.7c-10.3,11.6-28.1,12.6-39.7,2.3
		c-11.6-10.3-12.6-28.1-2.3-39.7C136.1,11,153.9,10,165.5,20.4"/>
	<path id="XMLID_49_" fill="#C11E5D" d="M85,54.9c11.5,10.2,12.5,27.9,2.3,39.4c-10.2,11.5-27.9,12.5-39.4,2.3
		c-11.5-10.2-12.5-27.9-2.3-39.4C55.9,45.6,73.5,44.6,85,54.9"/>
	<path id="XMLID_40_" fill="#C11E5D" d="M128.8,116.6c-7.2-6.5-7.9-17.6-1.4-24.8c6.5-7.2,17.6-7.9,24.8-1.4
		c7.3,6.5,7.9,17.6,1.4,24.8C147.1,122.5,136,123.1,128.8,116.6"/>
	<path id="XMLID_60_" fill="#8CADDB" d="M185.4,73.4c6.5,5.8,7.1,15.8,1.3,22.3c-5.8,6.5-15.8,7.1-22.3,1.3
		c-6.5-5.8-7.1-15.8-1.3-22.3C168.9,68.2,178.9,67.6,185.4,73.4"/>
	<path id="XMLID_73_" fill="#5CC4D7" d="M358,216.3c8,7.1,8.7,19.3,1.6,27.2c-7.1,8-19.3,8.7-27.2,1.6c-8-7.1-8.7-19.3-1.6-27.2
		C337.8,209.9,350,209.2,358,216.3"/>
	<g id="XMLID_71_">
		<path id="XMLID_72_" fill="#5ABFED" d="M224.3,182.9c-4.7-4.2-5.1-11.4-0.9-16.2c4.2-4.7,11.4-5.1,16.2-0.9
			c4.7,4.2,5.1,11.4,0.9,16.2C236.2,186.7,229,187.1,224.3,182.9"/>
	</g>
	<path id="XMLID_70_" fill="#D11D59" d="M280.5,141.6c9.4,8.3,10.2,22.7,1.9,32.1c-8.3,9.4-22.7,10.2-32.1,1.9
		c-9.4-8.3-10.2-22.7-1.9-32.1C256.8,134.1,271.1,133.3,280.5,141.6"/>
	<path id="XMLID_69_" fill="#8CADDB" d="M352.3,126.6c9.9,8.8,10.8,24,2,34c-8.8,9.9-24,10.8-34,2c-9.9-8.8-10.8-24-2-34
		C327.2,118.6,342.4,117.8,352.3,126.6"/>
	<path id="XMLID_68_" fill="#8CADDB" d="M347.2,201.2c6.3,5.6,15.8,5,21.4-1.2c5.6-6.3,5-15.8-1.2-21.4s-15.8-5-21.4,1.2
		C340.4,186.1,341,195.7,347.2,201.2"/>
	<path id="XMLID_67_" fill="#8CADDB" d="M277.4,190.9c6.5,5.8,7.1,15.8,1.3,22.3c-5.8,6.5-15.8,7.1-22.3,1.3
		c-6.5-5.8-7.1-15.8-1.3-22.3C260.9,185.7,270.9,185.1,277.4,190.9"/>
	<path id="XMLID_66_" fill="#9D87BF" d="M303,220.8c9.2,8.2,10,22.3,1.8,31.5c-8.2,9.2-22.3,10-31.5,1.8c-9.2-8.2-10-22.3-1.8-31.5
		C279.7,213.4,293.8,212.6,303,220.8"/>
	<path id="XMLID_65_" fill="#9D87BF" d="M388.3,244.6c8.2,7.3,9,19.9,1.6,28.2c-7.3,8.2-19.9,9-28.2,1.6c-8.2-7.3-9-19.9-1.6-28.1
		C367.5,238.1,380.1,237.3,388.3,244.6"/>
	<path id="XMLID_64_" fill="#9D87BF" d="M396.7,143.3c8.9,7.9,9.7,21.6,1.8,30.5c-7.9,8.9-21.6,9.7-30.5,1.8
		c-8.9-7.9-9.7-21.6-1.8-30.5C374.1,136.2,387.8,135.4,396.7,143.3"/>
	<path id="XMLID_63_" fill="#C11E5D" d="M328.2,170.6c11.5,10.2,12.5,27.9,2.3,39.4c-10.2,11.5-27.9,12.5-39.4,2.3
		c-11.5-10.2-12.5-27.9-2.3-39.4C299.1,161.4,316.7,160.4,328.2,170.6"/>
	<path id="XMLID_62_" fill="#C11E5D" d="M371.9,232.4c-7.2-6.5-7.9-17.6-1.4-24.8c6.5-7.2,17.6-7.9,24.8-1.4
		c7.3,6.5,7.9,17.6,1.4,24.8C390.3,238.2,379.2,238.9,371.9,232.4"/>
	<g id="XMLID_78_">
		<path id="XMLID_79_" fill="#5ABFED" d="M225.6,284c-5.7-5.1-6.2-13.9-1.1-19.6c5.1-5.7,13.9-6.2,19.6-1.1
			c5.7,5.1,6.2,13.9,1.1,19.6C240.1,288.5,231.3,289.1,225.6,284"/>
	</g>
	<path id="XMLID_77_" fill="#D11D59" d="M287.4,267.9c9.4,8.3,10.2,22.7,1.9,32.1c-8.3,9.4-22.7,10.2-32.1,1.9
		c-9.4-8.3-10.2-22.7-1.9-32.1C263.7,260.4,278.1,259.5,287.4,267.9"/>
	<path id="XMLID_75_" fill="#9D87BF" d="M234.8,295.8c9.2,8.2,10,22.3,1.8,31.5c-8.2,9.2-22.3,10-31.5,1.8
		c-9.2-8.2-10-22.3-1.8-31.5C211.6,288.4,225.7,287.6,234.8,295.8"/>
	<path id="XMLID_74_" fill="#C11E5D" d="M346,266c11.5,10.2,12.5,27.9,2.3,39.4c-10.2,11.5-27.9,12.5-39.4,2.3
		c-11.5-10.2-12.5-27.9-2.3-39.4C316.9,256.8,334.5,255.8,346,266"/>
	<g id="XMLID_84_">
		<path id="XMLID_85_" fill="#5ABFED" d="M22.6,239.8c-5.7-5.1-6.2-13.9-1.1-19.6c5.1-5.7,13.9-6.2,19.6-1.1
			c5.7,5.1,6.2,13.9,1.1,19.6C37.2,244.4,28.4,244.9,22.6,239.8"/>
	</g>
	<path id="XMLID_83_" fill="#D11D59" d="M84.5,223.8c9.4,8.3,10.2,22.7,1.9,32.1c-8.3,9.4-22.7,10.2-32.1,1.9
		c-9.4-8.3-10.2-22.7-1.9-32.1C60.7,216.2,75.1,215.4,84.5,223.8"/>
	<path id="XMLID_82_" fill="#8CADDB" d="M81.4,273c6.5,5.8,7.1,15.8,1.3,22.3c-5.8,6.5-15.8,7.1-22.3,1.3
		c-6.5-5.8-7.1-15.8-1.3-22.3C64.8,267.8,74.8,267.2,81.4,273"/>
	<path id="XMLID_81_" fill="#9D87BF" d="M106.9,302.9c9.2,8.2,10,22.3,1.8,31.5c-8.2,9.2-22.3,10-31.5,1.8
		c-9.2-8.2-10-22.3-1.8-31.5C83.6,295.5,97.7,294.7,106.9,302.9"/>
	<path id="XMLID_80_" fill="#C11E5D" d="M132.1,252.8c11.5,10.2,12.5,27.9,2.3,39.4c-10.2,11.5-27.9,12.5-39.4,2.3
		c-11.5-10.2-12.5-27.9-2.3-39.4C103,243.5,120.7,242.5,132.1,252.8"/>
	<g id="XMLID_90_">
		<path id="XMLID_91_" fill="#5ABFED" d="M121,213.5c-5.7-5.1-6.2-13.9-1.1-19.6c5.1-5.7,13.9-6.2,19.6-1.1
			c5.7,5.1,6.2,13.9,1.1,19.6C135.5,218.1,126.7,218.6,121,213.5"/>
	</g>
	<path id="XMLID_89_" fill="#D11D59" d="M206.3-5.9c9.4,8.3,10.2,22.7,1.9,32.1c-8.3,9.4-22.7,10.2-32.1,1.9
		c-9.4-8.3-10.2-22.7-1.9-32.1C182.6-13.4,196.9-14.3,206.3-5.9"/>
	<path id="XMLID_88_" fill="#8CADDB" d="M165.7,243.7c6.5,5.8,7.1,15.8,1.3,22.3c-5.8,6.5-15.8,7.1-22.3,1.3
		c-6.5-5.8-7.1-15.8-1.3-22.3C149.2,238.4,159.2,237.9,165.7,243.7"/>
	<path id="XMLID_87_" fill="#9D87BF" d="M191.2,273.5c9.2,8.2,10,22.3,1.8,31.5c-8.2,9.2-22.3,10-31.5,1.8
		c-9.2-8.2-10-22.3-1.8-31.5C168,266.2,182,265.3,191.2,273.5"/>
	<path id="XMLID_86_" fill="#C11E5D" d="M216.5,223.4c11.5,10.2,12.5,27.9,2.3,39.4c-10.2,11.5-27.9,12.5-39.4,2.3
		c-11.5-10.2-12.5-27.9-2.3-39.4C187.4,214.2,205,213.2,216.5,223.4"/>
	<path id="XMLID_93_" fill="#8CADDB" d="M434.8,248.9c10.5,8.1,12.4,23.3,4.2,33.7c-8.1,10.5-23.3,12.4-33.7,4.2
		c-10.5-8.1-12.4-23.3-4.2-33.7C409.2,242.7,424.3,240.8,434.8,248.9"/>
	<path id="XMLID_92_" fill="#9D87BF" d="M99.9,140c12.3,9.5,14.5,27.2,5,39.5c-9.5,12.3-27.2,14.5-39.5,5
		c-12.3-9.5-14.5-27.2-5-39.5C70,132.7,87.7,130.5,99.9,140"/>
	<path id="XMLID_94_" fill="#8CADDB" d="M473,425.4c10.5,8.1,12.4,23.3,4.2,33.7c-8.1,10.5-23.3,12.4-33.7,4.2
		c-10.5-8.1-12.4-23.3-4.2-33.7C447.4,419.2,462.5,417.3,473,425.4"/>
	<path id="XMLID_95_" fill="#8CADDB" d="M43.6,413.5c10.5,8.1,12.4,23.3,4.2,33.7c-8.1,10.5-23.3,12.4-33.7,4.2
		c-10.5-8.1-12.4-23.3-4.2-33.7C18,407.3,33.1,405.4,43.6,413.5"/>
	<path id="XMLID_27_" fill="#5CC4D7" d="M309.1,104.2c8,7.1,8.7,19.3,1.6,27.2c-7.1,8-19.3,8.7-27.2,1.6c-8-7.1-8.7-19.3-1.6-27.2
		C288.9,97.9,301.1,97.2,309.1,104.2"/>
	<path id="XMLID_32_" fill="#9D87BF" d="M142.2,222.4c6.1,5.5,6.7,14.8,1.2,20.9c-5.4,6.1-14.8,6.7-20.9,1.2
		c-6.1-5.4-6.7-14.8-1.2-20.9C126.7,217.5,136.1,216.9,142.2,222.4"/>
	<path id="XMLID_46_" fill="#9D87BF" d="M203.6,378c6.1,5.5,6.7,14.8,1.2,20.9c-5.4,6.1-14.8,6.7-20.9,1.2
		c-6.1-5.4-6.7-14.8-1.2-20.9C188.1,373.1,197.4,372.5,203.6,378"/>
	<path id="XMLID_47_" fill="#9D87BF" d="M213.8,172c6.1,5.5,6.7,14.8,1.2,20.9c-5.4,6.1-14.8,6.7-20.9,1.2
		c-6.1-5.4-6.7-14.8-1.2-20.9C198.3,167.1,207.7,166.6,213.8,172"/>

</g>
</svg>
