<?xml version="1.0" encoding="utf-8"?>
<!-- Generator: Adobe Illustrator 18.1.0, SVG Export Plug-In . SVG Version: 6.00 Build 0)  -->
<svg version="1.1" id="Layer_1" xmlns="http://www.w3.org/2000/svg" xmlns:xlink="http://www.w3.org/1999/xlink" x="0px" y="0px"
	 viewBox="0 0 1953 1117" enable-background="new 0 0 1953 1117" xml:space="preserve">
<circle cx="97.5" cy="160.2" r="60.7"/>
<circle cx="267.8" cy="150.2" r="98.5"/>
<circle cx="247.6" cy="350.7" r="92"/>
<circle cx="95.6" cy="292.2" r="61"/>
<circle cx="433.5" cy="350.7" r="79.1"/>
<circle cx="468.6" cy="172.6" r="92"/>
<circle cx="-33.5" cy="196.4" r="68.2"/>
<circle cx="82.6" cy="446" r="81.6"/>
<circle cx="128.9" cy="0" r="92"/>
<circle cx="354.4" cy="518.6" r="92"/>
<circle cx="-75.4" cy="364.4" r="92"/>
<circle cx="391.5" cy="19.4" r="68.2"/>
<circle cx="-42.5" cy="46.4" r="68.2"/>
<circle cx="187.5" cy="573.4" r="68.2"/>
<circle cx="289.1" cy="-89.9" r="68.2"/>
<circle cx="1030.8" cy="282.7" r="60.7"/>
<circle cx="1201.1" cy="272.7" r="98.5"/>
<circle cx="1180.9" cy="473.3" r="92"/>
<circle cx="1028.9" cy="414.8" r="61"/>
<circle cx="1366.8" cy="473.3" r="79.1"/>
<circle cx="1401.9" cy="295.2" r="92"/>
<circle cx="899.8" cy="319" r="68.2"/>
<circle cx="1015.9" cy="568.6" r="81.6"/>
<circle cx="1062.2" cy="122.6" r="92"/>
<circle cx="1287.7" cy="641.2" r="92"/>
<circle cx="857.9" cy="487" r="92"/>
<circle cx="1324.8" cy="142" r="68.2"/>
<circle cx="890.8" cy="169" r="68.2"/>
<circle cx="1120.8" cy="696" r="68.2"/>
<circle cx="1222.4" cy="32.7" r="68.2"/>
<circle cx="461.6" cy="935.8" r="60.7"/>
<circle cx="631.8" cy="925.8" r="98.5"/>
<circle cx="611.6" cy="1126.3" r="92"/>
<circle cx="459.7" cy="1067.9" r="61"/>
<circle cx="797.5" cy="1126.3" r="79.1"/>
<circle cx="832.6" cy="948.2" r="92"/>
<circle cx="330.5" cy="972.1" r="68.2"/>
<circle cx="492.9" cy="775.7" r="92"/>
<circle cx="288.6" cy="1140" r="92"/>
<circle cx="755.5" cy="795.1" r="68.2"/>
<circle cx="321.5" cy="822.1" r="68.2"/>
<circle cx="653.1" cy="685.8" r="68.2"/>
<circle cx="1730.5" cy="228.7" r="60.7"/>
<circle cx="1900.8" cy="218.7" r="98.5"/>
<circle cx="1880.6" cy="419.2" r="92"/>
<circle cx="1728.6" cy="360.7" r="61"/>
<circle cx="1599.5" cy="264.9" r="68.2"/>
<circle cx="1715.6" cy="514.5" r="81.6"/>
<circle cx="1761.9" cy="68.5" r="92"/>
<circle cx="1987.4" cy="587.1" r="92"/>
<circle cx="1557.6" cy="432.9" r="92"/>
<circle cx="1590.5" cy="114.9" r="68.2"/>
<circle cx="1820.5" cy="641.9" r="68.2"/>
<circle cx="1922.1" cy="-21.4" r="68.2"/>
<circle cx="1139" cy="1168.1" r="60.7"/>
<circle cx="1265.7" cy="1053.9" r="98.5"/>
<circle cx="1375.1" cy="1223.1" r="92"/>
<circle cx="1520.3" cy="1107" r="79.1"/>
<circle cx="1436.5" cy="946" r="92"/>
<circle cx="1063.4" cy="1023.4" r="92"/>
<circle cx="1280.7" cy="874.6" r="68.2"/>
<circle cx="958.6" cy="1166.7" r="68.2"/>
<circle cx="1132.4" cy="853.2" r="68.2"/>
<circle cx="1737.7" cy="925.5" r="60.7"/>
<circle cx="1872.7" cy="1029.7" r="98.5"/>
<circle cx="1558.8" cy="805.6" r="76.6"/>
<circle cx="1866.5" cy="825.3" r="92"/>
<circle cx="2051.8" cy="1012.3" r="68.2"/>
<circle cx="1706.7" cy="747.8" r="68.2"/>
<circle cx="2046.3" cy="862.6" r="68.2"/>
<circle cx="1493.9" cy="627.9" r="98.5"/>
<circle cx="959" cy="785" r="98.5"/>
<circle cx="721.3" cy="248.7" r="98.5"/>
<circle cx="642.1" cy="456.4" r="98.5"/>
<circle cx="65" cy="798.7" r="98.5"/>
<circle cx="642.1" cy="51.6" r="98.5"/>
<circle cx="1393" cy="775.7" r="60.7"/>
<circle cx="855.9" cy="644.9" r="60.7"/>
<circle cx="512.6" cy="565.3" r="60.7"/>
<circle cx="823.7" cy="46.4" r="60.7"/>
<circle cx="357.2" cy="685.8" r="60.7"/>
<circle cx="1599.5" cy="972.1" r="60.7"/>
<circle cx="1450.9" cy="76.7" r="60.7"/>
<circle cx="220.9" cy="710.1" r="60.7"/>
<circle cx="205.6" cy="904" r="60.7"/>
<circle cx="45.8" cy="625.1" r="60.7"/>
<circle cx="160.2" cy="1027.9" r="60.7"/>
<circle cx="-14.9" cy="986.5" r="92"/>
</svg>
